<?xml version="1.0" encoding="utf-8"?><!-- Uploaded to: SVG Repo, www.svgrepo.com, Generator: SVG Repo Mixer Tools -->
<svg fill="#000000" width="800px" height="800px" viewBox="0 -0.52 50.025 50.025" xmlns="http://www.w3.org/2000/svg">
  <path id="TennisRacket" d="M262.621,193.895l-.034.031a15.688,15.688,0,0,1-4.186,3.17,21.073,21.073,0,0,1-3.762,1.685q-1.578.579-3.525,1.1l-.109.108-.06-.06c-1.4.364-2.939.7-4.647.985a35.632,35.632,0,0,0-10.02,2.954l.128.124a1.387,1.387,0,0,0-.164-.106c-.144.075-.224.12-.224.12l-.4-.383a1.457,1.457,0,0,0-1.273.369l.684-.666-8.626,8.394a1.409,1.409,0,0,0-.3.814l.915.905-1.1,1.084a1.563,1.563,0,0,1-2.193,0l-3.289-3.253a1.522,1.522,0,0,1,0-2.169l1.1-1.084.925.915a1.438,1.438,0,0,0,1-.416l-.71.705.02.02,8.484-8.257h0l.214-.208-.214.208a1.375,1.375,0,0,0,.261-1.622l-.242-.236.033-.071c-.021-.024-.029-.054-.052-.076l.06.059a50.521,50.521,0,0,0,3.282-10.7c.118-.591.241-1.154.365-1.7a20.953,20.953,0,0,1,6.259-14c3.627-3.6,7.646-6.116,11.85-6.569l-.077-.077.078.077a12.439,12.439,0,0,1,2.914.03l.109-.109.15.15a16.235,16.235,0,0,1,9,4.976C273.722,179.544,269.655,186.909,262.621,193.895Zm3.036-17.551-.15.15.495.494C265.9,176.774,265.777,176.559,265.658,176.344Zm-1.15,1.15-2,2,2.045,2.042,2-2Zm-14.05-4.037L252.5,175.5l2-2-2.045-2.042Zm-11.964,12.037L240.5,187.5l2-2-2.045-2.042-1.957,1.958C238.5,185.441,238.494,185.467,238.493,185.493Zm20.014-2-2,2,2.045,2.042,2-2Zm3.045,1.042,2-2-2.045-2.042-2,2ZM249.5,184.5l2-2-2-2-2,2Zm-3-1-2,2,2,2,2-2Zm4,2,2,2,2-2-2-2Zm2-4,2-2-2-2-2,2Zm1,1,2,2,2-2-2-2Zm2,4-2,2,2.045,2.042,2-2Zm-3,3-2,2,2.045,2.042,2-2Zm-1-1-2-2-2,2,2,2Zm-5,1-2,2,2,2,2-2Zm-1-1-2-2-2,2,2,2Zm-5,1-1.174,1.174a10.156,10.156,0,0,0,1.43,2.57L242.5,191.5Zm-1-1-.925-.924a13.285,13.285,0,0,0,.277,1.573Zm4-4,2-2-2.045-2.042-2,2Zm3-3,2-2-2.045-2.043-2,2Zm3-3,2-2-2.045-2.042-2,2Zm4-2,2,2,2-2-2-2Zm3,3,2,2,2-2-2-2Zm5-1,2-2-2-2-2,2Zm5.342,2.571-1.383,1.382.984.983A9.156,9.156,0,0,0,266.847,181.067Zm-.949,3.814-1.434-1.432-2,2,1.947,1.944A16.894,16.894,0,0,0,265.9,184.881Zm-2.324,3.675-2.109-2.106-2,2,2.247,2.245C262.374,189.985,263.009,189.274,263.574,188.556Zm-4.979,5.021a18.905,18.905,0,0,0,2-1.712c.05-.049.093-.1.142-.148l-2.269-2.267-2,2Zm-3.818,2.182a17.571,17.571,0,0,0,2.634-1.366l-1.946-1.944-2,2Zm-1.461.539-.85-.849-1.337,1.337A15.009,15.009,0,0,0,253.316,196.3Zm-1.764-1.762-2.045-2.042-2,2,2.045,2.042Zm-3.619,2.381-1.425-1.423-.948.948A11.536,11.536,0,0,0,247.933,196.918Zm-2.426-2.422-2-2-1.789,1.79a9.145,9.145,0,0,0,2.4,1.6Zm-9.8-1.745c-.55,1.9-1.049,3.742-1.466,5.326l.1-.1,2.641,2.57a52.961,52.961,0,0,0,5.742-1.238c.208-.057.413-.119.619-.178a12.056,12.056,0,0,1-4.916-2.881,11.245,11.245,0,0,1-2.563-4.029C235.814,192.4,235.758,192.572,235.707,192.751Zm3.02-9.389.817-.817-.539-.538C238.884,182.458,238.8,182.91,238.727,183.361Zm2.073-5.56a16.181,16.181,0,0,0-1.287,2.713l1.031,1.03,2-2Zm2.468-3.142a16.523,16.523,0,0,0-1.664,1.945l1.941,1.939,2-2-2.076-2.074C243.4,174.535,243.334,174.594,243.268,174.66ZM244.5,173.5l2.041,2.039,2-2L246.994,172l1-1,1.55,1.548L253,169.093A16.609,16.609,0,0,0,244.5,173.5Zm11.63-4.374a9.993,9.993,0,0,0-1.234-.117l-1.443,1.443L255.5,172.5l2-2Zm.369,4.368,2,2,2-2-2-2ZM259.6,170.4l-.094.094,2,2,.474-.474A14.181,14.181,0,0,0,259.6,170.4Zm3.5,2.637c-.166-.165-.334-.3-.5-.454l.406.406-.5.5,2,2,.378-.378A16.52,16.52,0,0,0,263.1,173.042Z" transform="translate(-219.983 -165.995)"/>
</svg>